<svg xmlns="http://www.w3.org/2000/svg" xmlns:xlink="http://www.w3.org/1999/xlink" width="800" zoomAndPan="magnify" viewBox="0 0 600 225" height="300" preserveAspectRatio="xMidYMid meet" version="1.0"><defs><g/></defs><g fill="#ffffff" fill-opacity="1"><g transform="translate(44.233109, 134.625004)"><g><path d="M 5.066406 0 L 19.195312 0 L 19.195312 -13.558594 L 29.253906 -13.558594 C 42.671875 -13.558594 49.378906 -21.621094 49.378906 -31.753906 C 49.378906 -41.527344 42.671875 -49.949219 29.253906 -49.949219 L 5.066406 -49.949219 Z M 19.195312 -25.472656 L 19.195312 -37.890625 L 29.253906 -37.890625 C 33.25 -37.890625 35.25 -34.964844 35.25 -31.539062 C 35.25 -28.257812 33.324219 -25.472656 29.253906 -25.472656 Z M 19.195312 -25.472656 "/></g></g></g><g fill="#ffffff" fill-opacity="1"><g transform="translate(94.744456, 134.625004)"><g><path d="M 30.039062 -35.25 L 29.328125 -31.394531 C 27.328125 -34.394531 23.832031 -35.964844 19.050781 -35.964844 C 8.992188 -35.964844 1.925781 -28.398438 1.925781 -17.554688 C 1.925781 -6.421875 8.707031 0.640625 19.480469 0.640625 C 23.617188 0.640625 27.1875 -1 29.683594 -3.851562 L 30.253906 0 L 42.386719 0 L 42.386719 -35.25 Z M 21.976562 -9.917969 C 17.765625 -9.917969 14.984375 -12.914062 14.984375 -17.554688 C 14.984375 -22.191406 17.765625 -25.402344 21.976562 -25.402344 C 26.542969 -25.402344 29.253906 -22.476562 29.253906 -17.554688 C 29.253906 -13.128906 26.1875 -9.917969 21.976562 -9.917969 Z M 21.976562 -9.917969 "/></g></g></g><g fill="#ffffff" fill-opacity="1"><g transform="translate(140.903844, 134.625004)"><g><path d="M 17.410156 0.855469 C 21.121094 0.855469 25.332031 -0.429688 28.328125 -3.851562 L 28.828125 0 L 40.457031 0 L 40.457031 -35.25 L 27.542969 -35.25 L 27.542969 -16.484375 C 27.542969 -11.84375 24.546875 -9.917969 21.476562 -9.917969 C 18.980469 -9.917969 16.554688 -11.417969 16.554688 -15.769531 L 16.554688 -35.25 L 3.425781 -35.25 L 3.425781 -15.699219 C 3.425781 -2.996094 9.917969 0.855469 17.410156 0.855469 Z M 17.410156 0.855469 "/></g></g></g><g fill="#ffffff" fill-opacity="1"><g transform="translate(185.279636, 134.625004)"><g><path d="M 3.851562 0 L 16.839844 0 L 16.839844 -49.949219 L 3.851562 -49.949219 Z M 3.851562 0 "/></g></g></g><g fill="#ffffff" fill-opacity="1"><g transform="translate(205.969317, 134.625004)"><g><path d="M 21.621094 0.855469 C 31.46875 0.855469 41.316406 -4.710938 41.316406 -17.480469 C 41.316406 -30.398438 32.109375 -35.964844 21.621094 -35.964844 C 11.417969 -35.964844 1.996094 -30.683594 1.996094 -17.480469 C 1.996094 -4.710938 11.488281 0.855469 21.621094 0.855469 Z M 21.621094 -9.917969 C 16.984375 -9.917969 14.84375 -13.484375 14.84375 -17.480469 C 14.84375 -21.550781 17.054688 -25.257812 21.621094 -25.257812 C 26.1875 -25.257812 28.46875 -21.550781 28.46875 -17.480469 C 28.46875 -13.273438 26.117188 -9.917969 21.621094 -9.917969 Z M 21.621094 -9.917969 "/></g></g></g><g fill="#ffffff" fill-opacity="1"><g transform="translate(249.205761, 134.625004)"><g/></g></g><g fill="#ffffff" fill-opacity="1"><g transform="translate(253.376269, 134.625004)"><g><path d="M 6.636719 0 L 12.914062 0 L 12.914062 -18.054688 L 24.972656 -18.054688 L 40.53125 0 L 48.378906 0 L 31.894531 -18.480469 C 42.3125 -19.265625 46.238281 -26.472656 46.238281 -33.964844 C 46.238281 -42.097656 40.53125 -49.949219 29.328125 -49.949219 L 6.636719 -49.949219 Z M 12.914062 -23.546875 L 12.914062 -44.382812 L 29.328125 -44.382812 C 36.605469 -44.382812 40.101562 -38.746094 40.101562 -33.824219 C 40.101562 -28.183594 36.535156 -23.546875 29.042969 -23.546875 Z M 12.914062 -23.546875 "/></g></g></g><g fill="#ffffff" fill-opacity="1"><g transform="translate(304.24434, 134.625004)"><g><path d="M 21.335938 0.855469 C 31.894531 0.855469 39.746094 -6.636719 39.746094 -17.554688 C 39.746094 -28.46875 32.039062 -36.035156 21.335938 -36.035156 C 10.847656 -36.035156 3.066406 -28.46875 3.066406 -17.554688 C 3.066406 -6.636719 10.773438 0.855469 21.335938 0.855469 Z M 21.335938 -4.636719 C 14.199219 -4.636719 8.847656 -9.917969 8.847656 -17.554688 C 8.847656 -25.332031 14.269531 -30.609375 21.40625 -30.609375 C 28.46875 -30.609375 33.894531 -25.332031 33.894531 -17.554688 C 33.894531 -9.917969 28.613281 -4.636719 21.335938 -4.636719 Z M 21.335938 -4.636719 "/></g></g></g><g fill="#ffffff" fill-opacity="1"><g transform="translate(347.050575, 134.625004)"><g><path d="M 24.402344 0.785156 C 34.464844 0.785156 42.3125 -5.992188 42.3125 -17.625 C 42.3125 -29.46875 35.535156 -36.035156 25.472656 -36.035156 C 20.550781 -36.035156 14.414062 -33.75 11.84375 -28.96875 L 11.84375 -49.949219 L 6.066406 -49.949219 L 6.066406 0 L 11.558594 0 L 11.84375 -6.066406 C 14.699219 -1.285156 19.195312 0.785156 24.402344 0.785156 Z M 23.976562 -4.78125 C 16.984375 -4.78125 12.203125 -9.988281 12.203125 -17.695312 C 12.203125 -25.257812 17.054688 -30.398438 23.976562 -30.398438 C 30.824219 -30.398438 36.390625 -26.328125 36.390625 -17.625 C 36.390625 -9.488281 30.824219 -4.78125 23.976562 -4.78125 Z M 23.976562 -4.78125 "/></g></g></g><g fill="#ffffff" fill-opacity="1"><g transform="translate(392.567869, 134.625004)"><g><path d="M 21.691406 0.855469 C 27.1875 0.855469 33.25 -1.140625 36.960938 -5.421875 L 37.035156 -5.421875 L 33.039062 -8.917969 C 30.753906 -6.066406 25.757812 -4.566406 21.835938 -4.566406 C 15.128906 -4.566406 9.632812 -8.777344 8.992188 -15.625 L 39.03125 -15.625 C 39.101562 -16.625 39.175781 -17.625 39.175781 -18.550781 C 39.175781 -30.539062 31.394531 -36.035156 21.40625 -36.035156 C 10.773438 -36.035156 3.140625 -28.398438 3.140625 -17.765625 C 3.140625 -6.277344 10.773438 0.855469 21.691406 0.855469 Z M 8.992188 -20.480469 C 10.132812 -27.328125 15.414062 -30.753906 21.550781 -30.753906 C 28.46875 -30.753906 33.179688 -27.257812 33.394531 -20.480469 Z M 8.992188 -20.480469 "/></g></g></g><g fill="#ffffff" fill-opacity="1"><g transform="translate(434.375286, 134.625004)"><g><path d="M 5.351562 0 L 11.203125 0 L 11.203125 -19.695312 C 11.203125 -26.117188 15.914062 -30.253906 21.550781 -30.253906 C 24.046875 -30.253906 25.757812 -29.613281 27.6875 -28.257812 L 30.324219 -33.25 C 28.183594 -34.75 25.332031 -36.035156 22.335938 -36.035156 C 18.339844 -36.035156 13.914062 -34.679688 11.273438 -30.039062 L 10.773438 -35.25 L 5.351562 -35.25 Z M 5.351562 0 "/></g></g></g><g fill="#ffffff" fill-opacity="1"><g transform="translate(464.91041, 134.625004)"><g><path d="M 20.050781 0.855469 C 22.621094 0.855469 24.972656 0.285156 27.398438 -0.855469 L 25.6875 -5.707031 C 24.046875 -4.921875 22.40625 -4.351562 20.835938 -4.351562 C 16.554688 -4.351562 15.269531 -6.992188 15.269531 -11.132812 L 15.269531 -30.253906 L 26.1875 -30.253906 L 26.1875 -35.25 L 15.339844 -35.25 L 15.339844 -45.523438 L 9.417969 -44.882812 L 9.417969 -35.25 L 2.355469 -35.25 L 2.355469 -30.253906 L 9.417969 -30.253906 L 9.417969 -11.132812 C 9.417969 -3.566406 12.773438 0.855469 20.050781 0.855469 Z M 20.050781 0.855469 "/></g></g></g><g fill="#ffffff" fill-opacity="1"><g transform="translate(493.233849, 134.625004)"><g><path d="M 21.335938 0.855469 C 31.894531 0.855469 39.746094 -6.636719 39.746094 -17.554688 C 39.746094 -28.46875 32.039062 -36.035156 21.335938 -36.035156 C 10.847656 -36.035156 3.066406 -28.46875 3.066406 -17.554688 C 3.066406 -6.636719 10.773438 0.855469 21.335938 0.855469 Z M 21.335938 -4.636719 C 14.199219 -4.636719 8.847656 -9.917969 8.847656 -17.554688 C 8.847656 -25.332031 14.269531 -30.609375 21.40625 -30.609375 C 28.46875 -30.609375 33.894531 -25.332031 33.894531 -17.554688 C 33.894531 -9.917969 28.613281 -4.636719 21.335938 -4.636719 Z M 21.335938 -4.636719 "/></g></g></g><g fill="#ff3131" fill-opacity="1"><g transform="translate(535.669202, 134.625004)"><g><path d="M 10.0625 0.570312 C 14.84375 0.570312 17.195312 -2.710938 17.195312 -5.851562 C 17.195312 -9.132812 14.84375 -12.34375 10.0625 -12.34375 C 5.351562 -12.34375 2.996094 -9.132812 2.996094 -5.851562 C 2.996094 -2.710938 5.351562 0.570312 10.0625 0.570312 Z M 10.0625 0.570312 "/></g></g></g></svg>